<?xml version="1.0" encoding="utf-8"?>
<svg width="210px" height="210px" viewBox="0 0 210 210" version="1.1" xmlns="http://www.w3.org/2000/svg" xmlns:bx="https://boxy-svg.com">
  <defs>
    <path d="M50 200L24.999 200Q24.3853 200 23.7724 199.97Q23.1594 199.94 22.5487 199.88Q21.9379 199.819 21.3309 199.729Q20.7238 199.639 20.1219 199.52Q19.52 199.4 18.9247 199.251Q18.3294 199.102 17.7422 198.924Q17.1549 198.745 16.5771 198.539Q15.9993 198.332 15.4323 198.097Q14.8653 197.862 14.3105 197.6Q13.7558 197.337 13.2146 197.048Q12.6733 196.759 12.1469 196.443Q11.6206 196.128 11.1103 195.787Q10.6 195.446 10.1071 195.08Q9.61419 194.715 9.1398 194.325Q8.66541 193.936 8.2107 193.524Q7.75598 193.112 7.32204 192.678Q6.88809 192.244 6.47596 191.789Q6.06383 191.335 5.67451 190.86Q5.28519 190.386 4.91961 189.893Q4.55404 189.4 4.21309 188.89Q3.87214 188.379 3.55664 187.853Q3.24114 187.327 2.95185 186.785Q2.66256 186.244 2.40017 185.689Q2.13778 185.135 1.90294 184.568Q1.66809 184.001 1.46134 183.423Q1.25459 182.845 1.07645 182.258Q0.898303 181.671 0.749189 181.075Q0.600074 180.48 0.480349 179.878Q0.360624 179.276 0.270576 178.669Q0.180529 178.062 0.120377 177.451Q0.0602248 176.841 0.0301124 176.228Q0 175.615 0 175.001L0 24.999Q0 24.3853 0.0301124 23.7724Q0.0602248 23.1594 0.120377 22.5487Q0.180529 21.9379 0.270576 21.3309Q0.360624 20.7238 0.480349 20.1219Q0.600074 19.52 0.749189 18.9247Q0.898303 18.3294 1.07645 17.7422Q1.25459 17.1549 1.46134 16.5771Q1.66809 15.9993 1.90294 15.4323Q2.13778 14.8653 2.40017 14.3105Q2.66256 13.7558 2.95185 13.2146Q3.24114 12.6733 3.55664 12.1469Q3.87214 11.6206 4.21309 11.1103Q4.55404 10.6 4.91961 10.1071Q5.28519 9.61419 5.67451 9.1398Q6.06383 8.66541 6.47596 8.2107Q6.88809 7.75598 7.32204 7.32204Q7.75598 6.88809 8.2107 6.47596Q8.66541 6.06383 9.1398 5.67451Q9.61419 5.28519 10.1071 4.91961Q10.6 4.55404 11.1103 4.21309Q11.6206 3.87214 12.1469 3.55664Q12.6733 3.24114 13.2146 2.95185Q13.7558 2.66256 14.3105 2.40017Q14.8653 2.13778 15.4323 1.90294Q15.9993 1.66809 16.5771 1.46134Q17.1549 1.25459 17.7422 1.07645Q18.3294 0.898303 18.9247 0.749189Q19.52 0.600074 20.1219 0.480349Q20.7238 0.360624 21.3309 0.270576Q21.9379 0.180529 22.5487 0.120377Q23.1594 0.0602248 23.7724 0.0301124Q24.3853 0 24.999 0L50 0" id="path_1"/>
    <path d="M50 200L24.999 200Q24.3853 200 23.7724 199.97Q23.1594 199.94 22.5487 199.88Q21.9379 199.819 21.3309 199.729Q20.7238 199.639 20.1219 199.52Q19.52 199.4 18.9247 199.251Q18.3294 199.102 17.7422 198.924Q17.1549 198.745 16.5771 198.539Q15.9993 198.332 15.4323 198.097Q14.8653 197.862 14.3105 197.6Q13.7558 197.337 13.2146 197.048Q12.6733 196.759 12.1469 196.443Q11.6206 196.128 11.1103 195.787Q10.6 195.446 10.1071 195.08Q9.61419 194.715 9.1398 194.325Q8.66541 193.936 8.2107 193.524Q7.75598 193.112 7.32204 192.678Q6.88809 192.244 6.47596 191.789Q6.06383 191.335 5.67451 190.86Q5.28519 190.386 4.91961 189.893Q4.55404 189.4 4.21309 188.89Q3.87214 188.379 3.55664 187.853Q3.24114 187.327 2.95185 186.785Q2.66256 186.244 2.40017 185.689Q2.13778 185.135 1.90294 184.568Q1.66809 184.001 1.46134 183.423Q1.25459 182.845 1.07645 182.258Q0.898303 181.671 0.749189 181.075Q0.600074 180.48 0.480349 179.878Q0.360624 179.276 0.270576 178.669Q0.180529 178.062 0.120377 177.451Q0.0602248 176.841 0.0301124 176.228Q0 175.615 0 175.001L0 24.999Q0 24.3853 0.0301124 23.7724Q0.0602248 23.1594 0.120377 22.5487Q0.180529 21.9379 0.270576 21.3309Q0.360624 20.7238 0.480349 20.1219Q0.600074 19.52 0.749189 18.9247Q0.898303 18.3294 1.07645 17.7422Q1.25459 17.1549 1.46134 16.5771Q1.66809 15.9993 1.90294 15.4323Q2.13778 14.8653 2.40017 14.3105Q2.66256 13.7558 2.95185 13.2146Q3.24114 12.6733 3.55664 12.1469Q3.87214 11.6206 4.21309 11.1103Q4.55404 10.6 4.91961 10.1071Q5.28519 9.61419 5.67451 9.1398Q6.06383 8.66541 6.47596 8.2107Q6.88809 7.75598 7.32204 7.32204Q7.75598 6.88809 8.2107 6.47596Q8.66541 6.06383 9.1398 5.67451Q9.61419 5.28519 10.1071 4.91961Q10.6 4.55404 11.1103 4.21309Q11.6206 3.87214 12.1469 3.55664Q12.6733 3.24114 13.2146 2.95185Q13.7558 2.66256 14.3105 2.40017Q14.8653 2.13778 15.4323 1.90294Q15.9993 1.66809 16.5771 1.46134Q17.1549 1.25459 17.7422 1.07645Q18.3294 0.898303 18.9247 0.749189Q19.52 0.600074 20.1219 0.480349Q20.7238 0.360624 21.3309 0.270576Q21.9379 0.180529 22.5487 0.120377Q23.1594 0.0602248 23.7724 0.0301124Q24.3853 0 24.999 0L50 0" transform="matrix(-1 0 0 1 200 0)" id="path_2"/>
    <clipPath id="clip_1">
      <path d="M50 200L24.999 200Q24.3853 200 23.7724 199.97Q23.1594 199.94 22.5487 199.88Q21.9379 199.819 21.3309 199.729Q20.7238 199.639 20.1219 199.52Q19.52 199.4 18.9247 199.251Q18.3294 199.102 17.7422 198.924Q17.1549 198.745 16.5771 198.539Q15.9993 198.332 15.4323 198.097Q14.8653 197.862 14.3105 197.6Q13.7558 197.337 13.2146 197.048Q12.6733 196.759 12.1469 196.443Q11.6206 196.128 11.1103 195.787Q10.6 195.446 10.1071 195.08Q9.61419 194.715 9.1398 194.325Q8.66541 193.936 8.2107 193.524Q7.75598 193.112 7.32204 192.678Q6.88809 192.244 6.47596 191.789Q6.06383 191.335 5.67451 190.86Q5.28519 190.386 4.91961 189.893Q4.55404 189.4 4.21309 188.89Q3.87214 188.379 3.55664 187.853Q3.24114 187.327 2.95185 186.785Q2.66256 186.244 2.40017 185.689Q2.13778 185.135 1.90294 184.568Q1.66809 184.001 1.46134 183.423Q1.25459 182.845 1.07645 182.258Q0.898303 181.671 0.749189 181.075Q0.600074 180.48 0.480349 179.878Q0.360624 179.276 0.270576 178.669Q0.180529 178.062 0.120377 177.451Q0.0602248 176.841 0.0301124 176.228Q0 175.615 0 175.001L0 24.999Q0 24.3853 0.0301124 23.7724Q0.0602248 23.1594 0.120377 22.5487Q0.180529 21.9379 0.270576 21.3309Q0.360624 20.7238 0.480349 20.1219Q0.600074 19.52 0.749189 18.9247Q0.898303 18.3294 1.07645 17.7422Q1.25459 17.1549 1.46134 16.5771Q1.66809 15.9993 1.90294 15.4323Q2.13778 14.8653 2.40017 14.3105Q2.66256 13.7558 2.95185 13.2146Q3.24114 12.6733 3.55664 12.1469Q3.87214 11.6206 4.21309 11.1103Q4.55404 10.6 4.91961 10.1071Q5.28519 9.61419 5.67451 9.1398Q6.06383 8.66541 6.47596 8.2107Q6.88809 7.75598 7.32204 7.32204Q7.75598 6.88809 8.2107 6.47596Q8.66541 6.06383 9.1398 5.67451Q9.61419 5.28519 10.1071 4.91961Q10.6 4.55404 11.1103 4.21309Q11.6206 3.87214 12.1469 3.55664Q12.6733 3.24114 13.2146 2.95185Q13.7558 2.66256 14.3105 2.40017Q14.8653 2.13778 15.4323 1.90294Q15.9993 1.66809 16.5771 1.46134Q17.1549 1.25459 17.7422 1.07645Q18.3294 0.898303 18.9247 0.749189Q19.52 0.600074 20.1219 0.480349Q20.7238 0.360624 21.3309 0.270576Q21.9379 0.180529 22.5487 0.120377Q23.1594 0.0602248 23.7724 0.0301124Q24.3853 0 24.999 0L50 0" transform="matrix(1, 0, 0, 1, 0, 0)"/>
    </clipPath>
    <clipPath id="clip_2">
      <path d="M50 200L24.999 200Q24.3853 200 23.7724 199.97Q23.1594 199.94 22.5487 199.88Q21.9379 199.819 21.3309 199.729Q20.7238 199.639 20.1219 199.52Q19.52 199.4 18.9247 199.251Q18.3294 199.102 17.7422 198.924Q17.1549 198.745 16.5771 198.539Q15.9993 198.332 15.4323 198.097Q14.8653 197.862 14.3105 197.6Q13.7558 197.337 13.2146 197.048Q12.6733 196.759 12.1469 196.443Q11.6206 196.128 11.1103 195.787Q10.6 195.446 10.1071 195.08Q9.61419 194.715 9.1398 194.325Q8.66541 193.936 8.2107 193.524Q7.75598 193.112 7.32204 192.678Q6.88809 192.244 6.47596 191.789Q6.06383 191.335 5.67451 190.86Q5.28519 190.386 4.91961 189.893Q4.55404 189.4 4.21309 188.89Q3.87214 188.379 3.55664 187.853Q3.24114 187.327 2.95185 186.785Q2.66256 186.244 2.40017 185.689Q2.13778 185.135 1.90294 184.568Q1.66809 184.001 1.46134 183.423Q1.25459 182.845 1.07645 182.258Q0.898303 181.671 0.749189 181.075Q0.600074 180.48 0.480349 179.878Q0.360624 179.276 0.270576 178.669Q0.180529 178.062 0.120377 177.451Q0.0602248 176.841 0.0301124 176.228Q0 175.615 0 175.001L0 24.999Q0 24.3853 0.0301124 23.7724Q0.0602248 23.1594 0.120377 22.5487Q0.180529 21.9379 0.270576 21.3309Q0.360624 20.7238 0.480349 20.1219Q0.600074 19.52 0.749189 18.9247Q0.898303 18.3294 1.07645 17.7422Q1.25459 17.1549 1.46134 16.5771Q1.66809 15.9993 1.90294 15.4323Q2.13778 14.8653 2.40017 14.3105Q2.66256 13.7558 2.95185 13.2146Q3.24114 12.6733 3.55664 12.1469Q3.87214 11.6206 4.21309 11.1103Q4.55404 10.6 4.91961 10.1071Q5.28519 9.61419 5.67451 9.1398Q6.06383 8.66541 6.47596 8.2107Q6.88809 7.75598 7.32204 7.32204Q7.75598 6.88809 8.2107 6.47596Q8.66541 6.06383 9.1398 5.67451Q9.61419 5.28519 10.1071 4.91961Q10.6 4.55404 11.1103 4.21309Q11.6206 3.87214 12.1469 3.55664Q12.6733 3.24114 13.2146 2.95185Q13.7558 2.66256 14.3105 2.40017Q14.8653 2.13778 15.4323 1.90294Q15.9993 1.66809 16.5771 1.46134Q17.1549 1.25459 17.7422 1.07645Q18.3294 0.898303 18.9247 0.749189Q19.52 0.600074 20.1219 0.480349Q20.7238 0.360624 21.3309 0.270576Q21.9379 0.180529 22.5487 0.120377Q23.1594 0.0602248 23.7724 0.0301124Q24.3853 0 24.999 0L50 0" transform="matrix(-1, 0, 0, 1, 200, 0)"/>
    </clipPath>
    <filter id="invert-filter-0" color-interpolation-filters="sRGB" x="-500%" y="-500%" width="1000%" height="1000%" bx:preset="invert 1 1">
      <feComponentTransfer>
        <feFuncR type="table" tableValues="1 0"/>
        <feFuncG type="table" tableValues="1 0"/>
        <feFuncB type="table" tableValues="1 0"/>
      </feComponentTransfer>
    </filter>
    <filter id="invert-filter-1" color-interpolation-filters="sRGB" x="-500%" y="-500%" width="1000%" height="1000%" bx:preset="invert 1 1">
      <feComponentTransfer>
        <feFuncR type="table" tableValues="1 0"/>
        <feFuncG type="table" tableValues="1 0"/>
        <feFuncB type="table" tableValues="1 0"/>
      </feComponentTransfer>
    </filter>
  </defs>
  <g id="Barcode" transform="matrix(0.931771, 0, 0, 0.931771, 5, 5)" style="filter: url(#invert-filter-0);">
    <g id="Left-Bracket">
      <g clip-path="url(#clip_1)">
        <path d="M50 200L24.999 200Q24.3853 200 23.7724 199.97Q23.1594 199.94 22.5487 199.88Q21.9379 199.819 21.3309 199.729Q20.7238 199.639 20.1219 199.52Q19.52 199.4 18.9247 199.251Q18.3294 199.102 17.7422 198.924Q17.1549 198.745 16.5771 198.539Q15.9993 198.332 15.4323 198.097Q14.8653 197.862 14.3105 197.6Q13.7558 197.337 13.2146 197.048Q12.6733 196.759 12.1469 196.443Q11.6206 196.128 11.1103 195.787Q10.6 195.446 10.1071 195.08Q9.61419 194.715 9.1398 194.325Q8.66541 193.936 8.2107 193.524Q7.75598 193.112 7.32204 192.678Q6.88809 192.244 6.47596 191.789Q6.06383 191.335 5.67451 190.86Q5.28519 190.386 4.91961 189.893Q4.55404 189.4 4.21309 188.89Q3.87214 188.379 3.55664 187.853Q3.24114 187.327 2.95185 186.785Q2.66256 186.244 2.40017 185.689Q2.13778 185.135 1.90294 184.568Q1.66809 184.001 1.46134 183.423Q1.25459 182.845 1.07645 182.258Q0.898303 181.671 0.749189 181.075Q0.600074 180.48 0.480349 179.878Q0.360624 179.276 0.270576 178.669Q0.180529 178.062 0.120377 177.451Q0.0602248 176.841 0.0301124 176.228Q0 175.615 0 175.001L0 24.999Q0 24.3853 0.0301124 23.7724Q0.0602248 23.1594 0.120377 22.5487Q0.180529 21.9379 0.270576 21.3309Q0.360624 20.7238 0.480349 20.1219Q0.600074 19.52 0.749189 18.9247Q0.898303 18.3294 1.07645 17.7422Q1.25459 17.1549 1.46134 16.5771Q1.66809 15.9993 1.90294 15.4323Q2.13778 14.8653 2.40017 14.3105Q2.66256 13.7558 2.95185 13.2146Q3.24114 12.6733 3.55664 12.1469Q3.87214 11.6206 4.21309 11.1103Q4.55404 10.6 4.91961 10.1071Q5.28519 9.61419 5.67451 9.1398Q6.06383 8.66541 6.47596 8.2107Q6.88809 7.75598 7.32204 7.32204Q7.75598 6.88809 8.2107 6.47596Q8.66541 6.06383 9.1398 5.67451Q9.61419 5.28519 10.1071 4.91961Q10.6 4.55404 11.1103 4.21309Q11.6206 3.87214 12.1469 3.55664Q12.6733 3.24114 13.2146 2.95185Q13.7558 2.66256 14.3105 2.40017Q14.8653 2.13778 15.4323 1.90294Q15.9993 1.66809 16.5771 1.46134Q17.1549 1.25459 17.7422 1.07645Q18.3294 0.898303 18.9247 0.749189Q19.52 0.600074 20.1219 0.480349Q20.7238 0.360624 21.3309 0.270576Q21.9379 0.180529 22.5487 0.120377Q23.1594 0.0602248 23.7724 0.0301124Q24.3853 0 24.999 0L50 0" transform="matrix(1, 0, 0, 1, 0, 0)" fill="none" stroke="#323232" stroke-width="20" stroke-linecap="round" stroke-linejoin="round"/>
      </g>
    </g>
    <g id="Right-Bracket">
      <g clip-path="url(#clip_2)">
        <path d="M -0.022 176.851 L 0 24.999 C 0 24.59 0.01 24.181 0.03 23.772 C 0.05 23.364 0.08 22.956 0.12 22.549 C 0.16 22.142 0.211 21.736 0.271 21.331 C 0.331 20.926 0.401 20.523 0.48 20.122 C 0.56 19.721 0.65 19.322 0.749 18.925 C 0.849 18.528 0.958 18.134 1.076 17.742 C 1.195 17.351 1.324 16.962 1.461 16.577 C 1.599 16.192 1.746 15.81 1.903 15.432 C 2.06 15.054 2.225 14.68 2.4 14.311 C 2.575 13.941 2.759 13.575 2.952 13.215 C 3.145 12.854 3.346 12.498 3.557 12.147 C 3.767 11.796 3.986 11.451 4.213 11.11 C 4.44 10.77 4.676 10.436 4.92 10.107 C 5.163 9.778 5.415 9.456 5.675 9.14 C 5.934 8.824 6.201 8.514 6.476 8.211 C 6.751 7.908 7.033 7.611 7.322 7.322 C 7.611 7.033 7.908 6.751 8.211 6.476 C 8.514 6.201 8.824 5.934 9.14 5.675 C 9.456 5.415 9.778 5.163 10.107 4.92 C 10.436 4.676 10.77 4.44 11.11 4.213 C 11.451 3.986 11.796 3.767 12.147 3.557 C 12.498 3.346 12.854 3.145 13.215 2.952 C 13.575 2.759 13.941 2.575 14.311 2.4 C 14.68 2.225 15.054 2.06 15.432 1.903 C 15.81 1.746 16.192 1.599 16.577 1.461 C 16.962 1.324 17.351 1.195 17.742 1.076 C 18.134 0.958 18.528 0.849 18.925 0.749 C 19.322 0.65 19.721 0.56 20.122 0.48 C 20.523 0.401 20.926 0.331 21.331 0.271 C 21.736 0.211 22.142 0.16 22.549 0.12 C 22.956 0.08 23.364 0.05 23.772 0.03 C 24.181 0.01 24.59 0 24.999 0 L 50 0" transform="matrix(-1, 0, 0, 1, 200, 0)" fill="none" stroke="#323232" stroke-width="20" stroke-linecap="round" stroke-linejoin="round"/>
      </g>
    </g>
    <g id="Lines" transform="translate(27 25)">
      <path d="M1 150L1 0" id="Line-1" fill="none" fill-rule="evenodd" stroke="#323232" stroke-width="10"/>
      <path d="M1 150L1 0" transform="translate(36 0)" id="Line-2" fill="none" fill-rule="evenodd" stroke="#323232" stroke-width="10"/>
      <path d="M 1.025 104.216 L 1 0" transform="translate(72 0)" id="Line-3" fill="none" fill-rule="evenodd" stroke="#323232" stroke-width="10"/>
      <path d="M 109.414 104.924 L 109.334 0.334" id="Line-4" fill="none" fill-rule="evenodd" stroke="#323232" stroke-width="10" style=""/>
      <path d="M 0.722 90.133 L 1 0" id="Line-5" fill="none" fill-rule="evenodd" stroke="#323232" stroke-width="10" transform="translate(144 0)" bx:origin="-0.021567 0.5"/>
    </g>
  </g>
  <g transform="matrix(1, 0, 0, 1, -4.234982, -2.834364)" style="filter: url(#invert-filter-1);">
    <path d="M 185.552 135.109 C 184.714 146.746 176.081 155.712 166.668 155.712 C 157.253 155.712 148.606 146.749 147.782 135.109 C 146.924 123.002 155.328 114.507 166.668 114.507 C 178.007 114.507 186.41 123.223 185.552 135.109 Z" fill="none" stroke-linecap="round" stroke-linejoin="round" style="stroke: rgb(50, 50, 50); stroke-width: 8px;"/>
    <path d="M 166.668 174.024 C 148.019 174.024 130.088 183.286 125.594 201.325 C 124.999 203.712 126.495 206.072 128.948 206.072 L 204.389 206.072 C 206.841 206.072 208.329 203.712 207.742 201.325 C 203.249 182.997 185.317 174.024 166.668 174.024 Z" fill="none" stroke-miterlimit="10" style="stroke: rgb(50, 50, 50); stroke-width: 8px;"/>
    <path d="M 127.752 140.243 C 127.083 149.536 120.106 156.856 112.586 156.856 C 105.067 156.856 98.079 149.539 97.422 140.243 C 96.738 130.574 103.528 123.664 112.586 123.664 C 121.646 123.664 128.436 130.751 127.752 140.243 Z" fill="none" stroke-linecap="round" stroke-linejoin="round" style="stroke: rgb(50, 50, 50); stroke-width: 8px;"/>
    <path d="M 129.469 174.597 C 124.304 172.23 118.616 171.321 112.586 171.321 C 97.708 171.321 83.373 178.717 79.78 193.123 C 79.309 195.03 80.505 196.915 82.461 196.915 L 114.589 196.915" fill="none" stroke-linecap="round" stroke-miterlimit="10" style="stroke: rgb(50, 50, 50); stroke-width: 8px;"/>
  </g>
</svg>