<?xml version="1.0" encoding="utf-8"?>
<svg width="200px" height="200px" viewBox="0 0 200 200" version="1.1" xmlns="http://www.w3.org/2000/svg">
  <defs>
    <path d="M161.213 176.856L161.213 11.5385C161.194 5.1738 155.792 0.018582 149.122 0L12.091 0C5.42136 0.0184848 0.0193718 5.17362 0 11.5385L0 180.769C0.0332377 191.377 9.03605 199.968 20.1517 200L176.327 200" id="path_1"/>
    <path d="M24.182 169.274L24.182 169.274C10.8266 169.274 0 158.447 0 145.092L0 0L36.273 0C42.9506 0 48.364 5.41332 48.364 12.091L48.364 145.092C48.364 158.447 37.5373 169.274 24.182 169.274L24.182 169.274Z" transform="translate(151.63605 30)" id="path_2"/>
    <path d="M40.3033 48.3639L8.06066 48.3639C3.60888 48.3639 0 44.7551 0 40.3033L0 8.06066C0 3.60888 3.60888 0 8.06066 0L40.3033 0C44.755 0 48.3639 3.60888 48.3639 8.06066L48.3639 40.3033C48.3639 44.7551 44.755 48.3639 40.3033 48.3639L40.3033 48.3639Z" transform="translate(24.181969 32.242622)" id="path_3"/>
  </defs>
  <path d="M 157 173.055 L 156.262 15.962 C 156.244 9.915 151.176 5.018 144.917 5 L 16.345 5 C 10.086 5.017 5.018 9.915 5 15.962 L 5 176.731 C 5.031 186.808 13.478 194.97 23.908 195 L 176 195" fill="none" stroke="#323232" stroke-linejoin="round" style="stroke-width: 10px;"/>
  <path d="M 63.14 72.07 L 38.82 72.07 C 35.462 72.07 32.74 69.347 32.74 65.989 L 32.74 41.67 C 32.74 38.312 35.462 35.59 38.82 35.59 L 63.14 35.59 C 66.497 35.59 69.22 38.312 69.22 41.67 L 69.22 65.989 C 69.22 69.347 66.497 72.07 63.14 72.07 Z" fill="none" stroke="#323232" style="stroke-width: 10px;"/>
  <path d="M 92.142 36.638 L 122.772 36.638 M 92.142 67.269 L 122.772 67.269 M 30.881 97.899 L 122.772 97.899 M 30.881 128.529 L 122.772 128.529 M 30.881 159.159 L 122.772 159.159" id="Shape" fill="none" fill-rule="evenodd" stroke="#323232" stroke-width="10" stroke-linecap="round" stroke-linejoin="round"/>
  <path d="M 176 195 C 165.507 195 157 184.671 157 171.928 L 157 33.5 L 185.5 33.5 C 190.748 33.5 195 38.664 195 45.036 L 195 171.928 C 195 184.671 186.493 195 176 195 Z" stroke="#323232" stroke-linejoin="round" style="stroke-width: 10px;" fill="none"/>
</svg>